<svg width="61" height="61" viewBox="0 0 61 61" fill="none" xmlns="http://www.w3.org/2000/svg">
<circle cx="30.5" cy="30.5" r="30.5" fill="#7D55D7"/>
<g clip-path="url(#clip0_18_91)">
<path d="M38.0038 27.9609L37.6835 28.5195C37.5663 28.7266 37.3163 28.8125 37.0936 28.7305C36.6327 28.5586 36.2108 28.3125 35.8397 28.0039C35.66 27.8555 35.6132 27.5938 35.7303 27.3906L36.0507 26.832C35.7811 26.5195 35.5702 26.1563 35.4296 25.7617H34.785C34.5507 25.7617 34.3475 25.5938 34.3085 25.3594C34.2303 24.8906 34.2264 24.3984 34.3085 23.9102C34.3475 23.6758 34.5507 23.5039 34.785 23.5039H35.4296C35.5702 23.1094 35.7811 22.7461 36.0507 22.4336L35.7303 21.875C35.6132 21.6719 35.6561 21.4102 35.8397 21.2617C36.2108 20.9531 36.6366 20.707 37.0936 20.5352C37.3163 20.4531 37.5663 20.5391 37.6835 20.7461L38.0038 21.3047C38.4139 21.2305 38.8319 21.2305 39.2421 21.3047L39.5624 20.7461C39.6796 20.5391 39.9296 20.4531 40.1522 20.5352C40.6132 20.707 41.035 20.9531 41.4061 21.2617C41.5858 21.4102 41.6327 21.6719 41.5155 21.875L41.1952 22.4336C41.4647 22.7461 41.6757 23.1094 41.8163 23.5039H42.4608C42.6952 23.5039 42.8983 23.6719 42.9374 23.9063C43.0155 24.375 43.0194 24.8672 42.9374 25.3555C42.8983 25.5898 42.6952 25.7617 42.4608 25.7617H41.8163C41.6757 26.1563 41.4647 26.5195 41.1952 26.832L41.5155 27.3906C41.6327 27.5938 41.5897 27.8555 41.4061 28.0039C41.035 28.3125 40.6093 28.5586 40.1522 28.7305C39.9296 28.8125 39.6796 28.7266 39.5624 28.5195L39.2421 27.9609C38.8358 28.0352 38.4139 28.0352 38.0038 27.9609ZM37.5936 25.6641C39.0975 26.8203 40.8124 25.1055 39.6561 23.6016C38.1522 22.4414 36.4374 24.1602 37.5936 25.6641ZM33.0897 31.6758L34.4061 32.332C34.8007 32.5586 34.9725 33.0391 34.8163 33.4688C34.4686 34.4141 33.785 35.2813 33.1522 36.0391C32.8632 36.3867 32.3632 36.4727 31.9686 36.2461L30.8319 35.5898C30.2069 36.125 29.4803 36.5508 28.6874 36.8281V38.1406C28.6874 38.5938 28.3632 38.9844 27.9178 39.0625C26.9569 39.2266 25.9491 39.2344 24.953 39.0625C24.5038 38.9844 24.1718 38.5977 24.1718 38.1406V36.8281C23.3788 36.5469 22.6522 36.125 22.0272 35.5898L20.8905 36.2422C20.4999 36.4688 19.996 36.3828 19.7069 36.0352C19.0741 35.2773 18.4061 34.4102 18.0585 33.4688C17.9022 33.043 18.0741 32.5625 18.4686 32.332L19.7694 31.6758C19.6171 30.8594 19.6171 30.0195 19.7694 29.1992L18.4686 28.5391C18.0741 28.3125 17.8983 27.832 18.0585 27.4063C18.4061 26.4609 19.0741 25.5938 19.7069 24.8359C19.996 24.4883 20.496 24.4023 20.8905 24.6289L22.0272 25.2852C22.6522 24.75 23.3788 24.3242 24.1718 24.0469V22.7305C24.1718 22.2813 24.4921 21.8906 24.9374 21.8125C25.8983 21.6484 26.91 21.6406 27.9061 21.8086C28.3553 21.8867 28.6874 22.2734 28.6874 22.7305V24.043C29.4803 24.3242 30.2069 24.7461 30.8319 25.2813L31.9686 24.625C32.3593 24.3984 32.8632 24.4844 33.1522 24.832C33.785 25.5898 34.4491 26.457 34.7968 27.4023C34.953 27.8281 34.8007 28.3086 34.4061 28.5391L33.0897 29.1953C33.2421 30.0156 33.2421 30.8555 33.0897 31.6758ZM28.496 32.5C30.8085 29.4922 27.3749 26.0586 24.3671 28.3711C22.0546 31.3789 25.4882 34.8125 28.496 32.5ZM38.0038 39.6367L37.6835 40.1953C37.5663 40.4023 37.3163 40.4883 37.0936 40.4063C36.6327 40.2344 36.2108 39.9883 35.8397 39.6797C35.66 39.5313 35.6132 39.2695 35.7303 39.0664L36.0507 38.5078C35.7811 38.1953 35.5702 37.832 35.4296 37.4375H34.785C34.5507 37.4375 34.3475 37.2695 34.3085 37.0352C34.2303 36.5664 34.2264 36.0742 34.3085 35.5859C34.3475 35.3516 34.5507 35.1797 34.785 35.1797H35.4296C35.5702 34.7852 35.7811 34.4219 36.0507 34.1094L35.7303 33.5508C35.6132 33.3477 35.6561 33.0859 35.8397 32.9375C36.2108 32.6289 36.6366 32.3828 37.0936 32.2109C37.3163 32.1289 37.5663 32.2148 37.6835 32.4219L38.0038 32.9805C38.4139 32.9063 38.8319 32.9063 39.2421 32.9805L39.5624 32.4219C39.6796 32.2148 39.9296 32.1289 40.1522 32.2109C40.6132 32.3828 41.035 32.6289 41.4061 32.9375C41.5858 33.0859 41.6327 33.3477 41.5155 33.5508L41.1952 34.1094C41.4647 34.4219 41.6757 34.7852 41.8163 35.1797H42.4608C42.6952 35.1797 42.8983 35.3477 42.9374 35.582C43.0155 36.0508 43.0194 36.543 42.9374 37.0313C42.8983 37.2656 42.6952 37.4375 42.4608 37.4375H41.8163C41.6757 37.832 41.4647 38.1953 41.1952 38.5078L41.5155 39.0664C41.6327 39.2695 41.5897 39.5313 41.4061 39.6797C41.035 39.9883 40.6093 40.2344 40.1522 40.4063C39.9296 40.4883 39.6796 40.4023 39.5624 40.1953L39.2421 39.6367C38.8358 39.7109 38.4139 39.7109 38.0038 39.6367ZM37.5936 37.3359C39.0975 38.4922 40.8124 36.7773 39.6561 35.2734C38.1522 34.1172 36.4374 35.832 37.5936 37.3359Z" fill="white"/>
</g>
<defs>
<clipPath id="clip0_18_91">
<rect width="25" height="25" fill="white" transform="translate(18 18)"/>
</clipPath>
</defs>
</svg>
