<svg width="61" height="61" viewBox="0 0 61 61" fill="none" xmlns="http://www.w3.org/2000/svg">
<circle cx="30.5" cy="30.5" r="30.5" fill="#7D55D7"/>
<path d="M34.6667 24.6797C34.6667 24.4062 34.5582 24.1415 34.3628 23.9462L30.1137 19.6927C29.9184 19.4974 29.6536 19.3889 29.3759 19.3889H29.1111V24.9444H34.6667V24.6797ZM42.783 32.7569L38.6293 28.5729C38.191 28.1345 37.4401 28.4427 37.4401 29.0634V31.8889H34.6623V34.6667H37.4401V37.4965C37.4401 38.1172 38.191 38.4253 38.6293 37.987L42.783 33.7986C43.0694 33.5121 43.0694 33.0434 42.783 32.7569ZM26.3333 33.9722V32.5833C26.3333 32.2014 26.6458 31.8889 27.0278 31.8889H34.6667V26.3333H28.7639C28.191 26.3333 27.7222 25.8646 27.7222 25.2917V19.3889H19.0417C18.4644 19.3889 18 19.8533 18 20.4306V40.5694C18 41.1467 18.4644 41.6111 19.0417 41.6111H33.625C34.2023 41.6111 34.6667 41.1467 34.6667 40.5694V34.6667H27.0278C26.6458 34.6667 26.3333 34.3542 26.3333 33.9722Z" fill="white"/>
</svg>
