<svg width="61" height="61" viewBox="0 0 61 61" fill="none" xmlns="http://www.w3.org/2000/svg">
<circle cx="30.5" cy="30.5" r="30.5" fill="#7D55D7"/>
<path d="M35.9688 18H25.0312C23.7373 18 22.6875 19.0498 22.6875 20.3438V40.6562C22.6875 41.9502 23.7373 43 25.0312 43H35.9688C37.2627 43 38.3125 41.9502 38.3125 40.6562V20.3438C38.3125 19.0498 37.2627 18 35.9688 18ZM30.5 41.4375C29.6357 41.4375 28.9375 40.7393 28.9375 39.875C28.9375 39.0107 29.6357 38.3125 30.5 38.3125C31.3643 38.3125 32.0625 39.0107 32.0625 39.875C32.0625 40.7393 31.3643 41.4375 30.5 41.4375ZM35.9688 36.1641C35.9688 36.4863 35.7051 36.75 35.3828 36.75H25.6172C25.2949 36.75 25.0312 36.4863 25.0312 36.1641V20.9297C25.0312 20.6074 25.2949 20.3438 25.6172 20.3438H35.3828C35.7051 20.3438 35.9688 20.6074 35.9688 20.9297V36.1641Z" fill="white"/>
</svg>
