<svg width="61" height="61" viewBox="0 0 61 61" fill="none" xmlns="http://www.w3.org/2000/svg">
<circle cx="30.5" cy="30.5" r="30.5" fill="#7D55D7"/>
<path d="M29.5 22.5001L30.25 21.0001L31.75 20.25L30.25 19.5L29.5 18L28.75 19.5L27.25 20.25L28.75 21.0001L29.5 22.5001ZM22.75 25.5001L23.9997 23.0003L26.5 21.7501L23.9997 20.4999L22.75 18L21.5003 20.4999L19 21.7501L21.5003 23.0003L22.75 25.5001ZM39.25 31.5003L38.0003 34.0002L35.5 35.2503L38.0003 36.5005L39.25 39.0004L40.4997 36.5005L43 35.2503L40.4997 34.0002L39.25 31.5003ZM42.5603 22.4171L38.583 18.4397C38.2905 18.1463 37.9066 18 37.5227 18C37.1388 18 36.7548 18.1463 36.4619 18.4397L19.4397 35.4622C18.8538 36.0482 18.8538 36.9979 19.4397 37.5834L23.417 41.5608C23.71 41.8537 24.0939 42 24.4773 42C24.8612 42 25.2452 41.8537 25.5381 41.5608L42.5603 24.5378C43.1462 23.9528 43.1462 23.0026 42.5603 22.4171ZM35.8492 27.5374L33.4628 25.1509L37.5222 21.0915L39.9086 23.4779L35.8492 27.5374Z" fill="white"/>
</svg>
